<svg id="Capa_1" data-name="Capa 1" xmlns="http://www.w3.org/2000/svg" viewBox="0 0 1727.82 503.71"><defs><style>.cls-1{fill:#fff;}</style></defs><title>transicion</title><path class="cls-1" d="M1762.91,234V635.57H35.09V131.86H42c3.86,0,7.74,0,11.64.1,48.44.91,94.1,7.92,134.48,19.6a278.66,278.66,0,0,0,93.34,10c10.4-.6,21-.81,31.72-.6a394.44,394.44,0,0,1,105.67,16.07,320.35,320.35,0,0,0,145.81,9,406.32,406.32,0,0,1,75.87-5.59c47.42.89,91.73,9.68,129.75,24.29,51,19.59,104.94,29.09,159.19,29.23,1.24,0,2.49,0,3.74,0Z" transform="translate(-35.09 -131.85)"/></svg>